<?xml version="1.0" encoding="UTF-8" standalone="no"?>
<!-- Created with Inkscape (http://www.inkscape.org/) -->

<svg
   xmlns:dc="http://purl.org/dc/elements/1.1/"
   xmlns:cc="http://creativecommons.org/ns#"
   xmlns:rdf="http://www.w3.org/1999/02/22-rdf-syntax-ns#"
   xmlns:svg="http://www.w3.org/2000/svg"
   xmlns="http://www.w3.org/2000/svg"
   xmlns:sodipodi="http://sodipodi.sourceforge.net/DTD/sodipodi-0.dtd"
   xmlns:inkscape="http://www.inkscape.org/namespaces/inkscape"
   id="svg4446"
   sodipodi:docname="Simple-xrayman.svg"
   viewBox="0 0 100 210"
   version="1.1"
   inkscape:version="0.91 r13725"
   width="100"
   height="210">
  <defs
     id="defs16" />
  <title
     id="title4479">Simple X-ray Man</title>
  <sodipodi:namedview
     id="base"
     bordercolor="#666666"
     inkscape:pageshadow="2"
     inkscape:window-y="1"
     pagecolor="#ffffff"
     inkscape:window-height="1035"
     inkscape:window-maximized="1"
     inkscape:zoom="2.5464038"
     inkscape:window-x="4"
     showgrid="false"
     borderopacity="1.0"
     inkscape:current-layer="g4445"
     inkscape:cx="64.200923"
     inkscape:cy="133.6774"
     inkscape:window-width="1916"
     inkscape:pageopacity="0.0"
     inkscape:document-units="px" />
  <g
     id="layer1"
     inkscape:label="Layer 1"
     inkscape:groupmode="layer"
     transform="translate(-335.48,-377.22)">
    <g
       id="g4445"
       transform="matrix(2.0395,0,0,2.0395,541.58,-811.71)">
      <path
         style="fill:#5eb99d;fill-opacity:1;fill-rule:evenodd"
         d="m 51.662384,10.372057 c -11.29883,0 -20.394531,9.0957 -20.394531,20.394531 0,11.29883 9.095701,20.394531 20.394531,20.394531 11.29883,0 20.394531,-9.095701 20.394531,-20.394531 0,-11.298831 -9.095701,-20.394531 -20.394531,-20.394531 z M 13.236603,54.18065 c -2.66276,0 -5.121832,0.831002 -7.1445311,2.240235 -3.2323976,1.706634 -5.3755475,5.094681 -5.42773431,9.017578 l -0.67605634,50.819347 c -0.07514832,5.64892 4.54785035,10.19727 10.19726575,10.19727 5.649415,0 10.197266,-4.54785 10.197265,-10.19727 l 0,-41.85156 4.089844,0 0,69.42969 0,58.08008 c 0,5.64941 4.547851,10.19726 10.197266,10.19726 5.649415,0 10.197264,-4.54785 10.197266,-10.19726 l 0,-65.99219 10.197265,0 0,65.99219 c 0,5.64941 4.547851,10.19726 10.197266,10.19726 5.649415,0 10.197265,-4.54785 10.197265,-10.19726 l 0,-61.18555 0,-66.32422 4.080078,0 0,41.85156 c 10e-7,5.64942 4.547851,10.19727 10.197266,10.19727 5.649415,0 10.197266,-4.54785 10.197266,-10.19727 l 0,-53.140622 c 0.0374,-0.395342 0.0015,-1.602588 0.05859,-1.201172 l 0.676056,4.754869 c 0.0571,0.401417 -0.0212,-0.805831 -0.0586,-1.201172 l 0,-0.03125 c 0,-3.649945 -1.904148,-6.831807 -4.771485,-8.632813 -2.113489,-1.640591 -4.765526,-2.625 -7.660156,-2.625 z m 26.216522,9.688491 21.863281,0 c 5.708823,0 10.304688,4.595865 10.304688,10.304687 l 0,48.097652 c 0,5.70883 -4.595865,10.30469 -10.304688,10.30469 l -21.863281,0 c -5.708822,0 -10.304688,-4.59586 -10.304687,-10.30469 l 0,-48.097652 c 0,-5.708822 4.595865,-10.304687 10.304687,-10.304687 z m 0.994141,2.013671 c -5.37418,0 -9.701172,4.326992 -9.701172,9.701172 l 0,45.277346 c 0,5.37418 4.326992,9.70117 9.701172,9.70117 l 19.876953,0 c 5.37418,0 9.701172,-4.32699 9.701172,-9.70117 l 0,-45.277346 c 0,-5.37418 -4.326992,-9.701171 -9.701172,-9.701172 z m 9.68164,3.900391 0,0.002 2,0 c 0.576255,0 1.041016,0.466739 1.041016,1.046875 l 0,1.03711 10.435547,0 c 1.175286,0 2.121093,0.953523 2.121093,2.136718 l 0,0.02734 c 0,1.183155 -0.945807,2.136719 -2.121093,2.136719 l -10.435547,0 0,4.613281 14.408042,0 c 0.943438,0 1.703125,0.76513 1.703125,1.714844 l 0,0.931641 c 0,0.949754 -0.759687,1.714843 -1.703125,1.714843 l -14.408042,0 0,4.804688 12.664062,0 c 1.053898,0 1.902344,0.853114 1.902344,1.914062 l 0,0.341797 c 0,1.060948 -0.848446,1.914063 -1.902344,1.914063 l -12.664062,0 0,16.935546 c 2.574116,-0.75762 5.173882,-1.33104 7.847656,-1.38672 3.15117,1.82513 6.251099,3.67041 5.148438,7.14258 -3.919671,4.48094 -8.239298,8.13516 -13.248047,10.36523 -1.380607,0.79732 -2.59489,0.84643 -3.640625,0.12695 -5.353374,-2.38401 -10.131632,-5.75512 -13.814453,-10.99804 0.49724,-2.42917 0.216161,-5.04598 4.708984,-6.50977 0.318913,-0.16705 0.851353,-0.24422 1.505859,-0.24609 2.232882,-0.01 5.893187,0.83059 7.410157,1.79297 l 0,-17.222656 -13.228516,0 c -1.053897,0 -1.902344,-0.853115 -1.902344,-1.914063 l 0,-0.341797 c 0,-1.060948 0.848447,-1.914062 1.902344,-1.914062 l 13.228516,0 0,-4.804688 -15.625,0 c -0.943438,0 -1.703125,-0.765089 -1.703125,-1.714843 l 0,-0.931641 c 0,-0.949714 0.759687,-1.714844 1.703125,-1.714844 l 15.625,0 0,-4.613281 -9.996094,0 c -1.175286,0 -2.121094,-0.953564 -2.121094,-2.136719 l 0,-0.02734 c 0,-1.183195 0.945808,-2.136718 2.121094,-2.136718 l 9.996094,0 0,-1.03711 c 0,-0.580156 0.464746,-1.048828 1.041015,-1.048828 z m 7.685547,29.265625 4.144531,0 c 1.113072,0 2.009766,0.900942 2.009766,2.021482 0,1.12052 -0.896694,2.02344 -2.009766,2.02344 l -4.144531,0 c -1.113067,0 -2.007812,-0.90292 -2.007812,-2.02344 0,-1.12054 0.894745,-2.021482 2.007812,-2.021482 z m -17.830078,0.0625 4.144531,0 c 1.11307,0 2.007813,0.902932 2.007813,2.023442 0,1.1205 -0.894743,2.02148 -2.007813,2.02148 l -4.144531,0 c -1.113071,0 -2.009766,-0.90098 -2.009766,-2.02148 0,-1.12051 0.896695,-2.023442 2.009766,-2.023442 z m 19.589844,13.589842 c -1.526287,-7.9e-4 -2.763855,1.62685 -2.763672,3.63477 6.4e-4,2.00715 1.237966,3.6336 2.763672,3.63281 1.524943,-6.3e-4 2.76108,-1.62666 2.761719,-3.63281 1.83e-4,-2.00691 -1.236194,-3.63414 -2.761719,-3.63477 z m -16.828125,0.44141 c -1.525522,6.3e-4 -2.761898,1.62785 -2.761719,3.63476 -1.83e-4,2.00691 1.236194,3.63414 2.761719,3.63477 1.526287,7.9e-4 2.763855,-1.62685 2.763672,-3.63477 1.79e-4,-2.00791 -1.237388,-3.63555 -2.763672,-3.63476 z"
         transform="matrix(0.49031625,0,0,0.49031625,-101.05418,581.91714)"
         id="rect4447"
         inkscape:connector-curvature="0"
         sodipodi:nodetypes="sssssscsssscccsssccssscccssscsscscssssssssssssssssssssccsscssssccssssccsssscccccccccccssssccssssccsssscsccsssssssssssssscccccccccc" />
    </g>
  </g>
  <metadata
     id="metadata14">
    <rdf:RDF>
      <cc:Work>
        <dc:format>image/svg+xml</dc:format>
        <dc:type
           rdf:resource="http://purl.org/dc/dcmitype/StillImage" />
        <cc:license
           rdf:resource="http://creativecommons.org/publicdomain/zero/1.0/" />
        <dc:publisher>
          <cc:Agent
             rdf:about="http://openclipart.org/">
            <dc:title></dc:title>
          </cc:Agent>
        </dc:publisher>
        <dc:title>Simple X-ray Man</dc:title>
        <dc:date></dc:date>
        <dc:description>remix of eternaltyro's imagbe to make a simple xray man</dc:description>
        <dc:source></dc:source>
        <dc:creator>
          <cc:Agent>
            <dc:title>j4p4n</dc:title>
          </cc:Agent>
        </dc:creator>
        <dc:subject>
          <rdf:Bag>
            <rdf:li>man</rdf:li>
            <rdf:li>stick</rdf:li>
            <rdf:li>xray</rdf:li>
          </rdf:Bag>
        </dc:subject>
      </cc:Work>
      <cc:License
         rdf:about="http://creativecommons.org/publicdomain/zero/1.0/">
        <cc:permits
           rdf:resource="http://creativecommons.org/ns#Reproduction" />
        <cc:permits
           rdf:resource="http://creativecommons.org/ns#Distribution" />
        <cc:permits
           rdf:resource="http://creativecommons.org/ns#DerivativeWorks" />
      </cc:License>
    </rdf:RDF>
  </metadata>
</svg>
